<svg xmlns="http://www.w3.org/2000/svg" viewBox="0 0 1666.8 1261.75"><defs><style>.cls-1{fill:#fff;}</style></defs><title>feedo_logo_1</title><g id="Layer_2" data-name="Layer 2"><g id="Layer_1-2" data-name="Layer 1"><path class="cls-1" d="M0,288l291.17-47.81-.53,114.58L109.86,376.58l-.38,207.54,141.31-4.68-.45,112.81-141.06-1.68-.59,324.63L0,999.18Z"/><path class="cls-1" d="M311.17,236.81l300.28-51.43-1.14,129.48L420.5,338.74l-1.43,223,150.31-5.85-1.06,127.61-150-1.22-1.66,259.17,188,20.74-1.14,129.45-296.26-46.45Z"/><path class="cls-1" d="M641.48,180.12l300.4-53.68L940.07,272,750.2,296.88l-2.62,251.94,150.32-6.06-1.73,143.58-150-1.34-3,292.83L931,999.58l-1.8,145.51-296.14-48.7Z"/><path class="cls-1" d="M971.92,121l168.27-31.07c54.76-10.24,95.47,5.56,122.13,48.05,26.6,43.33,39.17,111.74,37.71,204.63L1290.89,923c-1.47,92.91-16.09,161.55-43.82,205.31-27.72,43-68.53,59.43-122.46,50.09l-165.78-28.28Zm152.94,901.67c17.79,2.15,31.6-4.55,41.4-20.23s15-42.7,15.56-80.7l8.53-576.06q.84-56.94-13.28-80.42Q1163,242,1136,245.67l-56,7.58L1069.49,1016Z"/><path class="cls-1" d="M1362.38,1159.4c-27.48-55.51-40.49-129.29-39-222.08l9.76-609.66c1.49-92.77,17-166.81,46.51-222.8,29.56-56.94,71.41-91.13,125.55-101.92s95.07,8.32,122.78,58.29c27.68,50.91,40.54,128.11,38.63,230.85l-12.56,675.26c-1.91,102.78-17.54,180.18-46.87,231.57-29.29,50.44-70.55,70.31-123.79,60.35S1389.81,1215.86,1362.38,1159.4Zm182.55-189.67L1557,291.52q2.19-122.49-54.82-114.1t-59,126.67l-11.07,655q-2,118.34,54.34,125.72T1544.93,969.73Z"/></g></g></svg>