<svg xmlns="http://www.w3.org/2000/svg" viewBox="0 0 488 551"><defs><style>.cls-1{fill:#ff8603;}</style></defs><title>gif_icon</title><g id="Layer_2" data-name="Layer 2"><g id="Layer_1-2" data-name="Layer 1"><path class="cls-1" d="M457.2,197H444V133.19a8.13,8.13,0,0,0-.12-1.2,10.56,10.56,0,0,0-2.56-7L335,3.69s-.07,0-.09-.07a10.59,10.59,0,0,0-2.15-1.81c-.3-.2-.6-.36-.93-.54a9.12,9.12,0,0,0-2-.79l-.52-.17A10.87,10.87,0,0,0,326.88,0H65.6A21.6,21.6,0,0,0,44,21.6V197H30.87A30.87,30.87,0,0,0,0,227.87V389.12A30.87,30.87,0,0,0,30.88,420H44V529.48A21.59,21.59,0,0,0,65.62,551H422.4A21.6,21.6,0,0,0,444,529.4V419h13.13A30.87,30.87,0,0,0,488,388.13V227.83A30.82,30.82,0,0,0,457.2,197ZM422,523H66V419H422V523ZM162.14,363.6c8.33,0,15-.94,17.86-2.38V327H155V299h60V384c-11.19,3.83-32.4,9.09-53.57,9.09-29.29,0-50.48-7.41-65.25-21.77-14.76-13.88-22.86-34.94-22.61-58.62.23-53.6,39.05-84.23,91.66-84.23,20.71,0,36.66,4.07,44.52,7.89l-7.62,29.19c-8.81-3.83-19.76-6.93-37.39-6.93-30.22,0-53.09,17.23-53.09,52.16C111.65,344,132.38,363.6,162.14,363.6ZM244,391V230h37V391Zm163-95v30H349v65H312V230h99v30H349v36Zm15-99H66V22H316V132.2A10.81,10.81,0,0,0,326.8,143H422v54Z"/></g></g></svg>