<svg xmlns="http://www.w3.org/2000/svg" viewBox="0 0 2375 1707.02"><defs><style>.cls-1{fill:none;stroke:#3f3d56;stroke-miterlimit:10;}.cls-2{fill:#f2f2f2;}.cls-3{fill:#6c63ff;opacity:0.3;}.cls-3,.cls-7{isolation:isolate;}.cls-4{fill:#e8dd43;}.cls-5{fill:#2f2e41;}.cls-6{fill:#a0616a;}.cls-7{opacity:0.1;}.cls-8{fill:#130f40;}.cls-9{fill:#3f3d56;}</style></defs><title>home_feedo</title><g id="Layer_2" data-name="Layer 2"><g id="Layer_1-2" data-name="Layer 1"><line class="cls-1" y1="1705.83" x2="382.03" y2="1705.83"/><rect class="cls-2" x="559.23" y="293.95" width="1696.1" height="1148.38" rx="44.64"/><rect class="cls-1" x="507.45" y="221.45" width="1696.1" height="1148.38" rx="44.64"/><line class="cls-1" x1="508.6" y1="331.92" x2="2204.7" y2="331.92"/><rect class="cls-3" x="1521.2" y="590.82" width="462.57" height="71.34" rx="16.32"/><rect class="cls-3" x="1433.75" y="788.74" width="639.78" height="57.53" rx="16.32"/><rect class="cls-3" x="1433.75" y="945.23" width="639.78" height="57.53" rx="16.32"/><rect class="cls-3" x="1433.75" y="1101.72" width="639.78" height="57.53" rx="16.32"/><rect class="cls-1" x="1545.36" y="566.66" width="462.57" height="71.34" rx="16.32"/><rect class="cls-1" x="1455.61" y="764.57" width="639.78" height="57.53" rx="16.32"/><rect class="cls-1" x="1455.61" y="921.07" width="639.78" height="57.53" rx="16.32"/><rect class="cls-1" x="1455.61" y="1077.56" width="639.78" height="57.53" rx="16.32"/><circle class="cls-3" cx="636.33" cy="290.55" r="34.52"/><circle class="cls-3" cx="732.98" cy="290.55" r="34.52"/><circle class="cls-3" cx="829.64" cy="290.55" r="34.52"/><circle class="cls-1" cx="650.13" cy="276.74" r="34.52"/><circle class="cls-1" cx="746.79" cy="276.74" r="34.52"/><circle class="cls-1" cx="843.45" cy="276.74" r="34.52"/><path class="cls-4" d="M1043.33,1322.65c-5.78-26.62-7.31-63-5.37-88.28,0,0-29.22-128.38-52.22-140.36h0c-.36.45-11.51,15.08-12.93,60.35-1.44,46-17.72,76.16-17.72,76.16s5.27,57.33,2.26,92.12Z"/><path class="cls-4" d="M1254.91,505.67H726.7A54.7,54.7,0,0,0,672,560.38h0V1268a54.7,54.7,0,0,0,54.7,54.7H911.53c-6.2-25.77-13.91-66-6.1-94v0h0c.36-1.31.75-2.59,1.18-3.84a146.44,146.44,0,0,0,5.26-56,116.62,116.62,0,0,0,0-48.86c-5.73-26.83-9.74-53.18-9.74-53.18s-3.17-35.44-.41-57.17c.07-.48.14-.93.2-1.4l-1.52-.35s8.13-36.88,11-60.35c.68-5.55,1.57-12.57,2.53-20.06a47.45,47.45,0,0,1-7.78-2c-25.8-9.1-33.93-91.5-33.93-91.5v-26.1s-8.6-40,21.5-57.73c29-17.07,40.56-21.74,41.38-22.06.22-.16.44-.3.66-.48a25.31,25.31,0,0,0,7.55-9.74c0-.66.05-1.31,0-2-.49-9.36-7-17.87-13.15-25.3l-15.78-19a18.51,18.51,0,0,1-4.06-6.59,14.94,14.94,0,0,1-.43-4.16c0-.51,0-1,0-1.54q.12-7.1.38-14.17c.15-4.13,1.18-9.33,5.21-10.18,2.1-.44,4.87.33,6-1.51a3.61,3.61,0,0,0,.27-2.44c0,.06,0,.13,0,.19a1.57,1.57,0,0,0,0-.23,51.41,51.41,0,0,1-1.49-10.1,13.16,13.16,0,0,1,.65-4.53c2.33-6.85,10.37-9.66,17.47-11s15.07-2.4,19.53-8.09a61.2,61.2,0,0,1,3.87-5.46,15.18,15.18,0,0,1,7.27-3.68,40,40,0,0,1,26.41,2.35c3.43,1.57,6.89,3.69,10.65,3.45,3.92-.25,7.26-3,11.12-3.68,6.25-1.09,12.21,3.6,15.29,9.15a22.77,22.77,0,0,1,2.83,11.56,16,16,0,0,1-4,10.91c-2.69,2.86-6.7,4.82-7.81,8.59-.46,1.53-.35,3.18-.75,4.72a5.49,5.49,0,0,1-.2.57,3.11,3.11,0,0,1,.23.28A48.86,48.86,0,0,1,999,712c0,.48,0,1,0,1.45a21.13,21.13,0,0,0,6.52,16.26L1048,747.19s25.63-3.12,34.87,35.23a66.32,66.32,0,0,1,1.59,19.46c-.34,5.79.45,16,7,29.14,10.51,21.08,8.12,69.46-13.38,74.25-20.37,4.54-28.29,2.63-29.07,2.42l0,.84c.34,9.08,3.56,87.38,15.26,96.86,3.24,2.62,2.62,4.39,0,5.58h0s0,.5.07,1.41c.35,5.72,2.16,27.53,10,39.94,9.08,14.37,8.13,97.25,8.13,97.25l6.21,48.86s-3.82,30.18,0,35.45c2.17,3,4.8,49.26,6.66,88.76h159.6a54.63,54.63,0,0,0,54.56-54.7V560.38a54.63,54.63,0,0,0-54.56-54.71Z"/><rect class="cls-1" x="615.61" y="442.38" width="639.78" height="816.98" rx="54.71"/><path class="cls-5" d="M232,740.19s-21.46-6.35-26.06.56,6.28,57,6.28,57l47.28,2.87L243,758.9Z"/><path class="cls-6" d="M66.61,1150.05s43,94.45,9.89,91.49-46-91.49-46-91.49Z"/><path class="cls-6" d="M348,1141.35s-18.87,102.06,12.56,91.15S383,1132.61,383,1132.61Z"/><path class="cls-6" d="M222.88,716.5s-.5,47.48,17.8,50-10.38,27.69-10.38,27.69l-32.64,6.43-47-3.46-20.77-26.7s36.59-17.31,20.77-71.21Z"/><path class="cls-7" d="M222.88,716.5s-.5,47.48,17.8,50-10.38,27.69-10.38,27.69l-32.64,6.43-47-3.46-20.77-26.7s36.59-17.31,20.77-71.21Z"/><path class="cls-8" d="M307,1118.05s23.24,50,4.94,206.71c0,0,5.44,55.39,1,65.77s-41,151.33-41,151.33-47,10.38-53.41-20.77c0,0,6.43-44.51,5.93-51.43s10.39-82.59,10.39-82.59l-22.26-146.38-16.81,132s0,38.08-5.44,46.49,0,177.53,0,177.53,15.33,25.71-7.91,26.21-44-.5-46-16.82-3-32.64-7.91-42.53-11.38-123.13-9.89-162.69S85.9,1158.11,96.78,1136.85,307,1118.05,307,1118.05Z"/><circle class="cls-6" cx="197.66" cy="674.97" r="59.34"/><path class="cls-2" d="M138.82,771.4s36.1,26.7,88.52,5.44c0,0,17.31-8.41,15.83-21.27s36.1,103.36,36.1,103.36l38.08,202.25-2,82.59s-16.82-8.41-69.24,10.38-138-21.26-138-21.26l3-212.15,3-123.63,7.91-27.2S126,762.49,138.82,771.4Z"/><path class="cls-8" d="M224.53,738.2s8.73-1.42,17.14,11.93,28.19,21.76,28.19,21.76,48,3,54.89,28.68S349,861.4,357.39,926.18s25.22,168.14,27.69,176.54-3.46,34.13,3.46,42-49,7.91-49,7.91-4.94-40.55-8.4-40.55-2.47,27.2,1,47-25.22,0-25.22,0S284.69,1068.6,263.43,987s-33.63-126.6-29.67-144.9,14.83-70.71,6.92-75.66S224.53,738.2,224.53,738.2Z"/><path class="cls-8" d="M153.21,738.16s-12.92,7-45.55,30.27-54.9,41-54.9,41S39.91,819.36,32,878.21,6.28,1089.37,13.2,1108.66s9.4,30.66,6.93,42,51.92,10.88,52.91,8.41-1.48-47.48,1-48.46,15.82,26.7,18.3,49.94,31.15,41.54,37.58,41.54,39.56-134,40.06-225.5S159.09,808,150.68,797.11,153.21,738.16,153.21,738.16Z"/><path class="cls-9" d="M240.19,1546.31s3.95-10.88,17.8-7.42,23.24-8.9,23.24-8.9,7.42-1,2.47,8.4-8.9,15.83-8.9,15.83,29.67,67.75,10.39,84.07-41.54,6.43-41.54,6.43-21.76-15.33-20.77-55.88c0,0-1-12.86-12.86-33.63s-20.77-52.42-6.43-58.36,18-6.15,18-6.15-6.71,30.69,10.63,41.42Z"/><path class="cls-9" d="M148.21,1623s-11.87-22.26,7.91-24.73,41-4,40,6.43-3.46,26.21-3.46,26.21l3.46,11.37s1,28.19,4.46,31.65S222.88,1707,182.82,1707s-51.92-4.45-48.46-13.84,4.45-55.88,4.45-55.88Z"/><path class="cls-5" d="M178.87,627.49s27.69,7.42,42,10.39,12.86-5.44,12.86-5.44,18.79,2.47,17.8.49,7.91-12.36-2.47-24.23-7.42-20.77-7.42-20.18h-8.9l-2.47-4.6H216.45c0,.55-10.38-3.41-37.58.55s-64.29,4.94-67.26,21.26-18.3,36.6-12.86,46,36.6,48,39.57,64.29,16.82,19.94,16.32,9.73-14.35-45.83-2.48-47.31S184.31,646.78,178.87,627.49Z"/><path class="cls-1" d="M2151.49,17.16A52.89,52.89,0,0,0,2105.9,49c-11.4,27.55,3.28,59.92,25.32,80s50.34,31.58,76.05,46.67c34.54,20.28,65.58,48.43,82.87,84.56s19.12,80.9-1.2,115.42c-18.85,32-53.14,51.21-85.84,68.9"/><ellipse class="cls-4" cx="2180.54" cy="19.56" rx="40.27" ry="19.56"/><ellipse class="cls-4" cx="2212.75" cy="148.44" rx="40.27" ry="19.56"/><ellipse class="cls-4" cx="2139.11" cy="169.15" rx="40.27" ry="19.56"/><ellipse class="cls-4" cx="2254.18" cy="277.31" rx="40.27" ry="19.56"/><ellipse class="cls-4" cx="2334.73" cy="277.31" rx="40.27" ry="19.56"/></g></g></svg>